<?xml version="1.0" encoding="UTF-8"?>
<!DOCTYPE svg PUBLIC "-//W3C//DTD SVG 1.1//EN" "http://www.w3.org/Graphics/SVG/1.1/DTD/svg11.dtd">
<!-- Creator: CorelDRAW (Evaluation Version) -->
<svg xmlns="http://www.w3.org/2000/svg" xml:space="preserve" width="8.26772in" height="11.6929in" version="1.1" style="shape-rendering:geometricPrecision; text-rendering:geometricPrecision; image-rendering:optimizeQuality; fill-rule:evenodd; clip-rule:evenodd"
viewBox="0 0 8267.72 11692.91"
 xmlns:xlink="http://www.w3.org/1999/xlink"
 xmlns:xodm="http://www.corel.com/coreldraw/odm/2003">
 <defs>
  <style type="text/css">
   <![CDATA[
    .fil0 {fill:#2D2A2B;fill-rule:nonzero}
   ]]>
  </style>
 </defs>
 <g id="Layer_x0020_1">
  <metadata id="CorelCorpID_0Corel-Layer"/>
  <g id="_328614640">
   <image x="2973.86" y="4376.46" width="2319.99" height="2183.33" xlink:href="Logo_Images/Logo_ImgID1.jpg"/>
   <path class="fil0" d="M2009.9 6823.09l-102.78 0 0 486.11 108.33 0c79.17,0 122.22,-43.06 122.22,-122.92l0 -16.67c0,-63.89 -19.44,-100 -65.28,-113.89l0 -1.39c38.89,-13.19 54.86,-45.14 54.86,-99.3l0 -9.03c0,-79.86 -40.97,-122.92 -117.36,-122.92zm-2.78 68.06c31.94,0 46.53,18.06 46.53,57.64l0 15.97c0,40.97 -14.58,59.03 -50,59.03l-22.92 0 0 -132.64 26.39 0zm2.08 200.69c38.89,0 54.86,19.44 54.86,62.5l0 27.08c0,40.97 -15.97,59.72 -51.39,59.72l-31.94 0 0 -149.31 28.47 0zm422.22 -268.75l-73.61 0 0 204.86 -87.5 0 0 -204.86 -73.61 0 0 486.11 73.61 0 0 -211.81 87.5 0 0 211.81 73.61 0 0 -486.11zm230.56 0l-93.75 0 -84.03 486.11 73.61 0 15.97 -110.42 81.25 0 15.97 110.42 75 0 -84.03 -486.11zm-46.53 104.17l29.86 204.86 -61.81 0 29.86 -204.86 2.08 0zm427.08 381.94l-67.36 -221.53c34.03,-19.44 52.08,-55.56 52.08,-106.94l0 -34.72c0,-79.86 -43.06,-122.92 -122.22,-122.92l-106.25 0 0 486.11 73.61 0 0 -205.56 34.03 0 58.33 205.56 77.78 0zm-140.28 -418.06c35.42,0 51.39,18.75 51.39,59.72l0 25c0,40.97 -15.97,59.72 -51.39,59.72l-29.86 0 0 -144.44 29.86 0zm345.14 -68.06l-93.75 0 -84.03 486.11 73.61 0 15.97 -110.42 81.25 0 15.97 110.42 75 0 -84.03 -486.11zm-46.53 104.17l29.86 204.86 -61.81 0 29.86 -204.86 2.08 0zm357.64 -104.17l-230.56 0 0 69.44 78.47 0 0 416.67 73.61 0 0 -416.67 78.47 0 0 -69.44zm271.53 0l-102.78 0 0 486.11 108.33 0c79.17,0 122.22,-43.06 122.22,-122.92l0 -16.67c0,-63.89 -19.44,-100 -65.28,-113.89l0 -1.39c38.89,-13.19 54.86,-45.14 54.86,-99.3l0 -9.03c0,-79.86 -40.97,-122.92 -117.36,-122.92zm-2.78 68.06c31.94,0 46.53,18.06 46.53,57.64l0 15.97c0,40.97 -14.58,59.03 -50,59.03l-22.92 0 0 -132.64 26.39 0zm2.08 200.69c38.89,0 54.86,19.44 54.86,62.5l0 27.08c0,40.97 -15.97,59.72 -51.39,59.72l-31.94 0 0 -149.31 28.47 0zm261.11 -268.75l-73.61 0 0 486.11 73.61 0 0 -486.11zm190.28 -6.94c-73.61,0 -118.75,46.53 -118.75,122.92l0 254.17c0,76.39 45.14,122.92 118.75,122.92 73.61,0 118.75,-46.53 118.75,-122.92l0 -254.17c0,-76.39 -45.14,-122.92 -118.75,-122.92zm0 68.06c29.17,0 45.14,19.44 45.14,55.56l0 252.78c0,36.11 -15.97,55.56 -45.14,55.56 -29.17,0 -45.14,-19.44 -45.14,-55.56l0 -252.78c0,-36.11 15.97,-55.56 45.14,-55.56zm401.39 -68.06c-70.14,0 -109.72,39.58 -109.72,109.03l0 10.42c0,56.94 22.92,97.22 90.28,154.17 49.3,41.67 63.89,65.97 63.89,96.53l0 15.97c0,30.56 -13.89,45.83 -41.67,45.83 -27.78,0 -41.67,-15.28 -41.67,-45.83l0 -34.72 -70.83 6.94 0 32.64c0,69.44 40.97,109.03 113.89,109.03 72.92,0 113.89,-39.58 113.89,-109.03l0 -24.31c0,-58.33 -25,-98.61 -92.36,-155.56 -49.31,-41.67 -61.81,-65.97 -61.81,-94.44l0 -6.25c0,-27.78 13.2,-42.36 37.5,-42.36 24.31,0 37.5,14.58 37.5,42.36l0 18.06 70.83 -6.94 0 -12.5c0,-69.44 -39.58,-109.03 -109.72,-109.03zm270.83 0c-71.53,0 -113.19,43.06 -113.19,116.67l0 266.67c0,73.61 41.67,116.67 113.19,116.67 72.22,0 114.58,-43.06 114.58,-116.67l0 -58.33 -70.83 -3.47 0 54.17c0,38.89 -14.58,56.25 -41.67,56.25 -27.08,0 -41.67,-17.36 -41.67,-49.31l0 -265.28c0,-31.94 14.58,-49.31 41.67,-49.31 27.09,0 41.67,17.36 41.67,56.25l0 39.59 70.83 -3.47 0 -43.75c0,-73.61 -42.36,-116.67 -114.58,-116.67zm250.69 6.94l-73.61 0 0 486.11 73.61 0 0 -486.11zm286.11 0l-206.94 0 0 486.11 206.94 0 0 -68.06 -133.33 0 0 -144.44 107.64 0 0 -68.06 -107.64 0 0 -137.5 133.33 0 0 -68.06zm302.08 0l-69.44 0 0 289.58 -1.39 0 -86.81 -289.58 -81.94 0 0 486.11 69.44 0 0 -322.22 1.39 0 96.53 322.22 72.22 0 0 -486.11zm184.72 -6.94c-71.53,0 -113.19,43.06 -113.19,116.67l0 266.67c0,73.61 41.67,116.67 113.19,116.67 72.22,0 114.58,-43.06 114.58,-116.67l0 -58.33 -70.83 -3.47 0 54.17c0,38.89 -14.58,56.25 -41.67,56.25 -27.08,0 -41.67,-17.36 -41.67,-49.31l0 -265.28c0,-31.94 14.58,-49.31 41.67,-49.31 27.09,0 41.67,17.36 41.67,56.25l0 39.59 70.83 -3.47 0 -43.75c0,-73.61 -42.36,-116.67 -114.58,-116.67zm384.03 6.94l-206.94 0 0 486.11 206.94 0 0 -68.06 -133.33 0 0 -144.44 107.64 0 0 -68.06 -107.64 0 0 -137.5 133.33 0 0 -68.06z"/>
  </g>
 </g>
</svg>
